<svg xmlns="http://www.w3.org/2000/svg" xmlns:xlink="http://www.w3.org/1999/xlink" width="1000" zoomAndPan="magnify" viewBox="0 0 750 749.999995" height="1000" preserveAspectRatio="xMidYMid meet" version="1.2"><defs><clipPath id="150775de9a"><path d="M 225 155 L 525 155 L 525 233.875 L 225 233.875 Z M 225 155 "/></clipPath></defs><g id="1971071ecb"><g style="fill:#b88917;fill-opacity:1;"><g transform="translate(135.78253, 536.848753)"><path style="stroke:none" d="M 47.140625 -159.484375 L 47.140625 -90.515625 L 137.90625 -90.515625 L 137.90625 -74.46875 L 47.140625 -74.46875 L 47.140625 0 L 28.578125 0 L 28.578125 -175.53125 L 148.953125 -175.53125 L 148.953125 -159.484375 Z M 47.140625 -159.484375 "/></g></g><g style="fill:#b88917;fill-opacity:1;"><g transform="translate(292.246589, 536.848753)"><path style="stroke:none" d="M 104.8125 1.5 C 87.425781 1.5 71.753906 -2.34375 57.796875 -10.03125 C 43.835938 -17.71875 32.882812 -28.375 24.9375 -42 C 17 -55.625 13.03125 -70.878906 13.03125 -87.765625 C 13.03125 -104.648438 17 -119.898438 24.9375 -133.515625 C 32.882812 -147.140625 43.878906 -157.796875 57.921875 -165.484375 C 71.960938 -173.179688 87.675781 -177.03125 105.0625 -177.03125 C 118.101562 -177.03125 130.140625 -174.851562 141.171875 -170.5 C 152.203125 -166.15625 161.5625 -159.804688 169.25 -151.453125 L 157.46875 -139.671875 C 143.757812 -153.546875 126.457031 -160.484375 105.5625 -160.484375 C 91.6875 -160.484375 79.066406 -157.304688 67.703125 -150.953125 C 56.335938 -144.597656 47.4375 -135.90625 41 -124.875 C 34.5625 -113.84375 31.34375 -101.472656 31.34375 -87.765625 C 31.34375 -74.054688 34.5625 -61.6875 41 -50.65625 C 47.4375 -39.625 56.335938 -30.929688 67.703125 -24.578125 C 79.066406 -18.222656 91.6875 -15.046875 105.5625 -15.046875 C 126.625 -15.046875 143.925781 -22.066406 157.46875 -36.109375 L 169.25 -24.328125 C 161.5625 -15.960938 152.160156 -9.566406 141.046875 -5.140625 C 129.929688 -0.710938 117.851562 1.5 104.8125 1.5 Z M 104.8125 1.5 "/></g></g><g style="fill:#b88917;fill-opacity:1;"><g transform="translate(470.274582, 536.848753)"><path style="stroke:none" d="M 62.6875 -159.484375 L 1 -159.484375 L 1 -175.53125 L 142.921875 -175.53125 L 142.921875 -159.484375 L 81.25 -159.484375 L 81.25 0 L 62.6875 0 Z M 62.6875 -159.484375 "/></g></g><g clip-rule="nonzero" clip-path="url(#150775de9a)"><path style=" stroke:none;fill-rule:evenodd;fill:#b88917;fill-opacity:1;" d="M 225.164062 168.898438 C 246.6875 157.207031 267.433594 154.351562 288.066406 155.929688 C 304.015625 157.152344 319.878906 160.992188 335.929688 165.382812 C 343.648438 167.5 351.398438 169.765625 359.230469 171.945312 C 366.90625 174.082031 374.652344 176.191406 382.539062 177.878906 C 398.515625 181.449219 417.285156 182.257812 435.785156 180.488281 C 454.425781 178.703125 472.777344 174.308594 487.75 167.074219 C 473.058594 175.152344 454.816406 180.660156 436.121094 183.324219 C 417.285156 186.015625 398.035156 185.773438 381.550781 182.765625 C 373.511719 181.222656 365.582031 179.355469 357.777344 177.246094 C 349.90625 175.117188 342.148438 172.796875 334.460938 170.519531 C 318.761719 165.871094 303.335938 161.5 287.703125 159.574219 C 267.484375 157.097656 246.96875 158.609375 225.164062 168.898438 Z M 284.316406 184.777344 C 296.710938 181.875 308.859375 181.785156 320.921875 183.269531 C 337.75 185.339844 354.355469 190.324219 371.046875 194.734375 C 381.984375 197.617188 392.933594 200.335938 404.089844 201.570312 C 410.460938 202.386719 416.816406 202.664062 423.140625 202.558594 C 438.128906 202.3125 452.902344 199.65625 467.195312 195.132812 C 487.757812 188.628906 507.292969 178.40625 524.738281 166.070312 C 507.835938 179.464844 488.765625 190.984375 468.339844 198.503906 C 453.863281 203.835938 438.71875 207.1875 423.292969 207.824219 C 416.707031 208.105469 410.074219 207.820312 403.421875 207.054688 C 392.027344 205.558594 380.816406 202.730469 369.734375 199.394531 C 353.3125 194.445312 337.140625 188.566406 320.574219 185.574219 C 308.738281 183.441406 296.742188 182.691406 284.316406 184.777344 Z M 254.097656 231.414062 C 281.070312 216.941406 302.675781 213.0625 322.714844 213.914062 C 340.703125 214.671875 357.398438 219.070312 375.515625 222.96875 C 391.15625 226.335938 407.859375 229.511719 427.738281 228.9375 C 441.640625 228.683594 454.136719 226.21875 466.171875 222.230469 C 478.363281 218.199219 490.070312 212.625 502.214844 206.074219 C 490.386719 213.339844 478.960938 219.632812 466.925781 224.328125 C 454.824219 229.046875 442.128906 232.113281 427.910156 233.054688 C 414.125 233.859375 401.753906 233.042969 390.222656 231.304688 C 381.644531 230.007812 373.546875 228.230469 365.65625 226.382812 C 357.464844 224.464844 349.523438 222.46875 341.511719 220.863281 C 329.800781 218.507812 317.964844 216.976562 304.96875 217.738281 C 290 218.617188 273.546875 222.421875 254.097656 231.414062 Z M 254.097656 231.414062 "/></g></g></svg>