<svg xmlns="http://www.w3.org/2000/svg" xmlns:xlink="http://www.w3.org/1999/xlink" width="500" zoomAndPan="magnify" viewBox="0 0 375 374.999991" height="500" preserveAspectRatio="xMidYMid meet" version="1.2"><defs><clipPath id="e16857b64e"><path d="M 112.5 77.1875 L 262.5 77.1875 L 262.5 116.9375 L 112.5 116.9375 Z M 112.5 77.1875 "/></clipPath></defs><g id="2857c11bef"><rect x="0" width="375" y="0" height="374.999991" style="fill:#ffffff;fill-opacity:1;stroke:none;"/><rect x="0" width="375" y="0" height="374.999991" style="fill:#ffffff;fill-opacity:1;stroke:none;"/><g style="fill:#b88917;fill-opacity:1;"><g transform="translate(67.891267, 268.424359)"><path style="stroke:none" d="M 23.578125 -79.734375 L 23.578125 -45.265625 L 68.953125 -45.265625 L 68.953125 -37.234375 L 23.578125 -37.234375 L 23.578125 0 L 14.296875 0 L 14.296875 -87.765625 L 74.46875 -87.765625 L 74.46875 -79.734375 Z M 23.578125 -79.734375 "/></g></g><g style="fill:#b88917;fill-opacity:1;"><g transform="translate(146.123294, 268.424359)"><path style="stroke:none" d="M 52.40625 0.75 C 43.71875 0.75 35.882812 -1.171875 28.90625 -5.015625 C 21.925781 -8.859375 16.445312 -14.1875 12.46875 -21 C 8.5 -27.8125 6.515625 -35.4375 6.515625 -43.875 C 6.515625 -52.320312 8.5 -59.953125 12.46875 -66.765625 C 16.445312 -73.578125 21.945312 -78.90625 28.96875 -82.75 C 35.988281 -86.59375 43.84375 -88.515625 52.53125 -88.515625 C 59.050781 -88.515625 65.066406 -87.425781 70.578125 -85.25 C 76.097656 -83.082031 80.78125 -79.90625 84.625 -75.71875 L 78.734375 -69.828125 C 71.878906 -76.765625 63.226562 -80.234375 52.78125 -80.234375 C 45.84375 -80.234375 39.53125 -78.644531 33.84375 -75.46875 C 28.164062 -72.300781 23.71875 -67.957031 20.5 -62.4375 C 17.28125 -56.914062 15.671875 -50.726562 15.671875 -43.875 C 15.671875 -37.019531 17.28125 -30.832031 20.5 -25.3125 C 23.71875 -19.800781 28.164062 -15.457031 33.84375 -12.28125 C 39.53125 -9.101562 45.84375 -7.515625 52.78125 -7.515625 C 63.3125 -7.515625 71.960938 -11.023438 78.734375 -18.046875 L 84.625 -12.15625 C 80.78125 -7.976562 76.078125 -4.78125 70.515625 -2.5625 C 64.960938 -0.351562 58.925781 0.75 52.40625 0.75 Z M 52.40625 0.75 "/></g></g><g style="fill:#b88917;fill-opacity:1;"><g transform="translate(235.137287, 268.424359)"><path style="stroke:none" d="M 31.34375 -79.734375 L 0.5 -79.734375 L 0.5 -87.765625 L 71.46875 -87.765625 L 71.46875 -79.734375 L 40.625 -79.734375 L 40.625 0 L 31.34375 0 Z M 31.34375 -79.734375 "/></g></g><g clip-rule="nonzero" clip-path="url(#e16857b64e)"><path style=" stroke:none;fill-rule:evenodd;fill:#b88917;fill-opacity:1;" d="M 112.582031 84.449219 C 123.34375 78.605469 133.71875 77.175781 144.03125 77.964844 C 152.007812 78.578125 159.941406 80.496094 167.964844 82.691406 C 171.824219 83.75 175.699219 84.882812 179.617188 85.972656 C 183.453125 87.042969 187.324219 88.09375 191.269531 88.9375 C 199.257812 90.722656 208.640625 91.128906 217.894531 90.242188 C 227.210938 89.351562 236.386719 87.15625 243.875 83.535156 C 236.527344 87.578125 227.410156 90.328125 218.0625 91.660156 C 208.640625 93.007812 199.015625 92.886719 190.773438 91.382812 C 186.753906 90.609375 182.789062 89.675781 178.886719 88.625 C 174.953125 87.558594 171.074219 86.398438 167.230469 85.257812 C 159.378906 82.9375 151.667969 80.75 143.851562 79.789062 C 133.742188 78.546875 123.484375 79.304688 112.582031 84.449219 Z M 142.160156 92.390625 C 148.355469 90.9375 154.429688 90.894531 160.460938 91.632812 C 168.875 92.671875 177.179688 95.164062 185.523438 97.367188 C 190.992188 98.808594 196.464844 100.167969 202.042969 100.785156 C 205.230469 101.195312 208.410156 101.332031 211.570312 101.28125 C 219.0625 101.15625 226.449219 99.828125 233.597656 97.566406 C 243.878906 94.316406 253.648438 89.203125 262.371094 83.035156 C 253.917969 89.730469 244.382812 95.492188 234.171875 99.25 C 226.929688 101.917969 219.359375 103.59375 211.644531 103.914062 C 208.355469 104.054688 205.039062 103.910156 201.710938 103.527344 C 196.011719 102.78125 190.40625 101.367188 184.867188 99.699219 C 176.65625 97.222656 168.570312 94.285156 160.285156 92.789062 C 154.367188 91.71875 148.371094 91.347656 142.160156 92.390625 Z M 127.046875 115.707031 C 140.535156 108.472656 151.335938 106.53125 161.355469 106.957031 C 170.351562 107.335938 178.699219 109.535156 187.757812 111.484375 C 195.578125 113.167969 203.929688 114.757812 213.871094 114.46875 C 220.820312 114.339844 227.070312 113.109375 233.085938 111.113281 C 239.183594 109.097656 245.035156 106.3125 251.105469 103.039062 C 245.191406 106.667969 239.480469 109.816406 233.464844 112.164062 C 227.410156 114.523438 221.066406 116.058594 213.957031 116.527344 C 207.0625 116.929688 200.878906 116.519531 195.109375 115.652344 C 190.824219 115.003906 186.773438 114.113281 182.828125 113.191406 C 178.734375 112.234375 174.761719 111.234375 170.757812 110.429688 C 164.898438 109.253906 158.980469 108.488281 152.484375 108.871094 C 145 109.308594 136.773438 111.210938 127.046875 115.707031 Z M 127.046875 115.707031 "/></g></g></svg>